<svg xmlns="http://www.w3.org/2000/svg" width="953" height="951" viewBox="0 0 953 951"><title>Ruins map semantic SVG recreation</title>
<desc>Best-effort vector recreation with separate region paths, transparent background, and isolated special icons.</desc>
<g id="board" fill="none" stroke="#a6a6a6" stroke-width="2" stroke-linejoin="round" stroke-linecap="round">
<path id="board_border" d="M 6 10 L 942 10 L 942 943 L 6 943 Z" />
</g>
<g id="regions" stroke="#a6a6a6" stroke-width="2" stroke-linejoin="round" stroke-linecap="round"><g id="ruin1"><path id="ruin1_l1" d="M 528.0 48.0 L 553.0 41.0 L 579.0 41.0 L 663.0 54.0 L 691.0 55.0 L 699.0 50.0 L 708.0 35.0 L 711.0 24.0 L 710.0 13.0 L 541.0 12.0 L 539.0 27.0 L 530.0 39.0 Z" fill="#f7f7f5" data-old-id="tile_005" data-tier="1" /><path id="ruin1_l2" d="M 247.0 57.0 L 272.0 60.0 L 320.0 60.0 L 368.0 53.0 L 386.0 46.0 L 402.0 34.0 L 410.0 33.0 L 418.0 12.0 L 258.0 12.0 L 256.0 32.0 Z" fill="#f7f7f5" data-old-id="tile_003" data-tier="1" /><path id="ruin1_l3" d="M 706.0 98.0 L 719.0 99.0 L 727.0 103.0 L 758.0 76.0 L 778.0 64.0 L 803.0 56.0 L 827.0 58.0 L 829.0 41.0 L 843.0 24.0 L 847.0 13.0 L 717.0 12.0 L 714.0 38.0 L 705.0 52.0 L 709.0 70.0 Z" fill="#f7f7f5" data-old-id="tile_006" data-tier="1" /><path id="ruin1_l4" d="M 10.0 12.0 L 10.0 112.0 L 27.0 110.0 L 70.0 112.0 L 75.0 95.0 L 97.0 71.0 L 119.0 60.0 L 152.0 57.0 L 170.0 61.0 L 182.0 71.0 L 189.0 104.0 L 195.0 115.0 L 210.0 111.0 L 229.0 111.0 L 239.0 114.0 L 242.0 86.0 L 240.0 61.0 L 250.0 30.0 L 251.0 12.0 L 115.0 12.0 L 116.0 22.0 L 132.0 44.0 L 133.0 57.0 L 128.0 56.0 L 123.0 42.0 L 111.0 27.0 L 108.0 12.0 Z" fill="#f7f7f5" data-old-id="tile_002" data-tier="1" /><path id="ruin1_l5" d="M 535.0 12.0 L 425.0 12.0 L 419.0 32.0 L 414.0 39.0 L 418.0 128.0 L 432.0 125.0 L 451.0 114.0 L 464.0 98.0 L 477.0 73.0 L 488.0 61.0 L 497.0 57.0 L 518.0 60.0 L 522.0 54.0 L 523.0 37.0 L 534.0 22.0 Z" fill="#f7f7f5" data-old-id="tile_004" data-tier="1" /><path id="ruin1_l6" d="M 853.0 13.0 L 849.0 28.0 L 835.0 44.0 L 833.0 60.0 L 855.0 79.0 L 867.0 97.0 L 870.0 107.0 L 882.0 105.0 L 903.0 110.0 L 938.0 109.0 L 938.0 12.0 L 861.0 11.0 Z" fill="#f7f7f5" data-old-id="tile_001" data-tier="1" /><path id="ruin1_l7" d="M 525.0 62.0 L 533.0 66.0 L 545.0 79.0 L 553.0 105.0 L 560.0 116.0 L 586.0 116.0 L 598.0 108.0 L 632.0 100.0 L 700.0 98.0 L 703.0 79.0 L 699.0 58.0 L 693.0 61.0 L 670.0 61.0 L 576.0 47.0 L 555.0 47.0 L 535.0 52.0 Z" fill="#f7f7f5" data-old-id="tile_008" data-tier="1" /><path id="ruin1_l8" d="M 872.0 114.0 L 872.0 134.0 L 879.0 153.0 L 880.0 165.0 L 895.0 183.0 L 919.0 234.0 L 926.0 240.0 L 938.0 241.0 L 938.0 115.0 L 901.0 116.0 L 880.0 111.0 Z" fill="#f7f7f5" data-old-id="tile_014" data-tier="1" /><path id="ruin1_l9" d="M 118.0 131.0 L 106.0 126.0 L 79.0 125.0 L 71.0 118.0 L 64.0 117.0 L 10.0 118.0 L 10.0 288.0 L 27.0 286.0 L 61.0 272.0 L 61.0 263.0 L 51.0 235.0 L 50.0 224.0 L 53.0 210.0 L 69.0 191.0 L 81.0 183.0 L 112.0 172.0 L 123.0 173.0 L 126.0 145.0 Z" fill="#f7f7f5" data-old-id="tile_015" data-tier="1" /><path id="ruin1_l10" d="M 938.0 247.0 L 927.0 246.0 L 908.0 259.0 L 887.0 278.0 L 881.0 288.0 L 876.0 334.0 L 871.0 348.0 L 881.0 358.0 L 888.0 405.0 L 902.0 403.0 L 938.0 405.0 Z" fill="#f7f7f5" data-old-id="tile_029" data-tier="1" /><path id="ruin1_l11" d="M 59.0 280.0 L 29.0 292.0 L 10.0 294.0 L 10.0 409.0 L 36.0 407.0 L 56.0 410.0 L 56.0 396.0 L 62.0 379.0 L 93.0 344.0 L 92.0 324.0 L 88.0 311.0 L 80.0 301.0 L 60.0 286.0 Z" fill="#f7f7f5" data-old-id="tile_030" data-tier="1" /><path id="ruin1_l12" d="M 876.0 417.0 L 843.0 449.0 L 830.0 470.0 L 849.0 487.0 L 862.0 506.0 L 876.0 516.0 L 908.0 528.0 L 938.0 530.0 L 938.0 412.0 L 905.0 409.0 L 887.0 412.0 Z" fill="#f7f7f5" data-old-id="tile_037" data-tier="1" /><path id="ruin1_l13" d="M 10.0 415.0 L 10.0 534.0 L 30.0 532.0 L 41.0 535.0 L 43.0 528.0 L 57.0 514.0 L 103.0 482.0 L 100.0 474.0 L 99.0 434.0 L 96.0 428.0 L 89.0 423.0 L 64.0 420.0 L 53.0 415.0 Z" fill="#f7f7f5" data-old-id="tile_038" data-tier="1" /><path id="ruin1_l14" d="M 868.0 519.0 L 879.0 557.0 L 877.0 592.0 L 887.0 606.0 L 884.0 642.0 L 895.0 701.0 L 897.0 704.0 L 925.0 703.0 L 938.0 707.0 L 938.0 536.0 L 906.0 534.0 L 882.0 527.0 Z" fill="#f7f7f5" data-old-id="tile_044" data-tier="1" /><path id="ruin1_l15" d="M 27.0 538.0 L 10.0 540.0 L 10.0 712.0 L 32.0 710.0 L 42.0 704.0 L 45.0 684.0 L 55.0 659.0 L 65.0 647.0 L 78.0 640.0 L 76.0 608.0 L 63.0 572.0 L 53.0 554.0 L 44.0 544.0 Z" fill="#f7f7f5" data-old-id="tile_048" data-tier="1" /><path id="ruin1_l16" d="M 889.0 713.0 L 873.0 726.0 L 861.0 752.0 L 862.0 767.0 L 874.0 776.0 L 879.0 789.0 L 878.0 823.0 L 896.0 820.0 L 916.0 826.0 L 938.0 824.0 L 938.0 713.0 L 923.0 709.0 L 904.0 709.0 Z" fill="#f7f7f5" data-old-id="tile_057" data-tier="1" /><path id="ruin1_l17" d="M 10.0 718.0 L 10.0 827.0 L 47.0 831.0 L 67.0 838.0 L 89.0 813.0 L 109.0 784.0 L 110.0 777.0 L 104.0 770.0 L 91.0 764.0 L 84.0 757.0 L 79.0 742.0 L 66.0 743.0 L 61.0 740.0 L 49.0 726.0 L 43.0 712.0 L 29.0 717.0 Z" fill="#f7f7f5" data-old-id="tile_058" data-tier="1" /><path id="ruin1_l18" d="M 251.0 841.0 L 227.0 826.0 L 203.0 821.0 L 165.0 862.0 L 131.0 887.0 L 119.0 899.0 L 128.0 915.0 L 127.0 939.0 L 227.0 939.0 L 228.0 902.0 L 236.0 892.0 L 249.0 884.0 L 252.0 877.0 Z" fill="#f7f7f5" data-old-id="tile_066" data-tier="1" /><path id="ruin1_l19" d="M 705.0 835.0 L 700.0 858.0 L 708.0 868.0 L 719.0 911.0 L 719.0 939.0 L 821.0 939.0 L 823.0 890.0 L 813.0 886.0 L 799.0 872.0 L 770.0 836.0 L 766.0 827.0 Z" fill="#f7f7f5" data-old-id="tile_070" data-tier="1" /><path id="ruin1_l20" d="M 938.0 830.0 L 913.0 832.0 L 892.0 826.0 L 877.0 831.0 L 873.0 855.0 L 864.0 876.0 L 851.0 887.0 L 829.0 891.0 L 827.0 939.0 L 938.0 939.0 Z" fill="#f7f7f5" data-old-id="tile_069" data-tier="1" /><path id="ruin1_l21" d="M 531.0 823.0 L 519.0 824.0 L 507.0 829.0 L 482.0 829.0 L 478.0 832.0 L 471.0 857.0 L 455.0 888.0 L 442.0 902.0 L 426.0 908.0 L 429.0 939.0 L 528.0 939.0 L 527.0 907.0 L 536.0 890.0 L 524.0 868.0 L 523.0 845.0 Z" fill="#f7f7f5" data-old-id="tile_068" data-tier="1" /><path id="ruin1_l22" d="M 10.0 833.0 L 10.0 939.0 L 120.0 939.0 L 122.0 917.0 L 113.0 904.0 L 112.0 898.0 L 72.0 864.0 L 62.0 843.0 L 45.0 837.0 Z" fill="#f7f7f5" data-old-id="tile_071" data-tier="1" /><path id="ruin1_l23" d="M 704.0 876.0 L 693.0 860.0 L 683.0 856.0 L 669.0 855.0 L 651.0 861.0 L 632.0 878.0 L 618.0 885.0 L 546.0 891.0 L 534.0 905.0 L 534.0 939.0 L 713.0 939.0 L 713.0 913.0 Z" fill="#f7f7f5" data-old-id="tile_072" data-tier="1" /><path id="ruin1_l24" d="M 233.0 908.0 L 233.0 939.0 L 422.0 939.0 L 420.0 909.0 L 391.0 909.0 L 353.0 903.0 L 325.0 892.0 L 299.0 870.0 L 282.0 863.0 L 258.0 864.0 L 258.0 879.0 L 255.0 888.0 L 240.0 898.0 Z" fill="#f7f7f5" data-old-id="tile_073" data-tier="1" /></g><g id="ruin2"><path id="ruin2_l1" d="M 408.0 39.0 L 385.0 54.0 L 349.0 63.0 L 322.0 66.0 L 270.0 66.0 L 246.0 63.0 L 248.0 89.0 L 245.0 113.0 L 278.0 106.0 L 334.0 102.0 L 412.0 129.0 Z" fill="#f7f7f5" data-old-id="tile_007" data-tier="2" /><path id="ruin2_l2" d="M 732.0 108.0 L 734.0 133.0 L 775.0 112.0 L 781.0 112.0 L 874.0 160.0 L 866.0 136.0 L 864.0 107.0 L 846.0 79.0 L 826.0 64.0 L 805.0 62.0 L 783.0 69.0 L 759.0 84.0 Z" fill="#f7f7f5" data-old-id="tile_009" data-tier="2" /><path id="ruin2_l3" d="M 162.0 65.0 L 142.0 63.0 L 118.0 67.0 L 98.0 79.0 L 84.0 94.0 L 77.0 107.0 L 77.0 115.0 L 81.0 119.0 L 109.0 120.0 L 120.0 124.0 L 127.0 130.0 L 132.0 142.0 L 129.0 170.0 L 145.0 161.0 L 166.0 161.0 L 172.0 158.0 L 175.0 134.0 L 188.0 119.0 L 182.0 102.0 L 178.0 78.0 L 169.0 68.0 Z" fill="#f7f7f5" data-old-id="tile_010" data-tier="2" /><path id="ruin2_l4" d="M 534.0 76.0 L 518.0 66.0 L 506.0 63.0 L 493.0 66.0 L 485.0 74.0 L 471.0 100.0 L 456.0 119.0 L 437.0 130.0 L 418.0 135.0 L 420.0 155.0 L 426.0 173.0 L 437.0 173.0 L 464.0 184.0 L 490.0 187.0 L 508.0 185.0 L 520.0 179.0 L 532.0 162.0 L 538.0 129.0 L 546.0 120.0 L 552.0 118.0 L 543.0 90.0 Z" fill="#f7f7f5" data-old-id="tile_011" data-tier="2" /><path id="ruin2_l5" d="M 594.0 119.0 L 605.0 125.0 L 617.0 141.0 L 621.0 174.0 L 641.0 168.0 L 669.0 166.0 L 728.0 136.0 L 728.0 114.0 L 721.0 107.0 L 712.0 104.0 L 634.0 106.0 L 612.0 110.0 Z" fill="#f7f7f5" data-old-id="tile_012" data-tier="2" /><path id="ruin2_l6" d="M 120.0 178.0 L 110.0 179.0 L 83.0 190.0 L 65.0 204.0 L 57.0 219.0 L 57.0 233.0 L 67.0 261.0 L 65.0 280.0 L 93.0 306.0 L 98.0 322.0 L 99.0 343.0 L 107.0 347.0 L 126.0 346.0 L 121.0 321.0 L 121.0 292.0 L 131.0 259.0 L 132.0 216.0 L 127.0 190.0 Z" fill="#f7f7f5" data-old-id="tile_023" data-tier="2" /><path id="ruin2_l7" d="M 877.0 171.0 L 866.0 175.0 L 818.0 205.0 L 830.0 274.0 L 830.0 319.0 L 827.0 346.0 L 833.0 344.0 L 863.0 345.0 L 867.0 341.0 L 874.0 290.0 L 879.0 277.0 L 899.0 257.0 L 919.0 244.0 L 909.0 232.0 L 891.0 190.0 Z" fill="#f7f7f5" data-old-id="tile_020" data-tier="2" /><path id="ruin2_l8" d="M 97.0 350.0 L 66.0 386.0 L 62.0 398.0 L 62.0 412.0 L 91.0 417.0 L 102.0 424.0 L 105.0 432.0 L 106.0 472.0 L 109.0 479.0 L 132.0 474.0 L 158.0 478.0 L 164.0 407.0 L 163.0 377.0 L 159.0 357.0 L 131.0 352.0 L 105.0 353.0 Z" fill="#f7f7f5" data-old-id="tile_033" data-tier="2" /><path id="ruin2_l9" d="M 871.0 356.0 L 855.0 350.0 L 827.0 352.0 L 813.0 368.0 L 810.0 395.0 L 797.0 406.0 L 790.0 408.0 L 773.0 406.0 L 771.0 453.0 L 776.0 464.0 L 824.0 467.0 L 830.0 454.0 L 868.0 414.0 L 882.0 407.0 L 878.0 371.0 Z" fill="#f7f7f5" data-old-id="tile_034" data-tier="2" /><path id="ruin2_l10" d="M 781.0 471.0 L 787.0 489.0 L 787.0 512.0 L 780.0 541.0 L 780.0 555.0 L 787.0 579.0 L 816.0 587.0 L 823.0 591.0 L 829.0 600.0 L 845.0 593.0 L 871.0 590.0 L 873.0 560.0 L 869.0 539.0 L 858.0 512.0 L 844.0 492.0 L 824.0 474.0 Z" fill="#f7f7f5" data-old-id="tile_041" data-tier="2" /><path id="ruin2_l11" d="M 106.0 488.0 L 62.0 519.0 L 47.0 535.0 L 47.0 538.0 L 61.0 553.0 L 77.0 588.0 L 84.0 618.0 L 84.0 639.0 L 113.0 639.0 L 122.0 599.0 L 138.0 568.0 L 136.0 552.0 L 113.0 517.0 Z" fill="#f7f7f5" data-old-id="tile_043" data-tier="2" /><path id="ruin2_l12" d="M 871.0 596.0 L 847.0 599.0 L 830.0 607.0 L 828.0 678.0 L 821.0 696.0 L 812.0 704.0 L 807.0 705.0 L 810.0 719.0 L 819.0 736.0 L 855.0 765.0 L 856.0 745.0 L 865.0 725.0 L 878.0 711.0 L 890.0 706.0 L 878.0 644.0 L 878.0 622.0 L 881.0 608.0 Z" fill="#f7f7f5" data-old-id="tile_051" data-tier="2" /><path id="ruin2_l13" d="M 47.0 706.0 L 59.0 728.0 L 69.0 737.0 L 76.0 737.0 L 179.0 681.0 L 181.0 646.0 L 128.0 648.0 L 102.0 644.0 L 82.0 645.0 L 70.0 652.0 L 59.0 666.0 L 52.0 683.0 Z" fill="#f7f7f5" data-old-id="tile_052" data-tier="2" /><path id="ruin2_l14" d="M 526.0 762.0 L 500.0 761.0 L 450.0 750.0 L 435.0 764.0 L 424.0 782.0 L 419.0 807.0 L 421.0 878.0 L 426.0 902.0 L 437.0 897.0 L 450.0 883.0 L 466.0 852.0 L 470.0 832.0 L 477.0 824.0 L 505.0 823.0 L 517.0 818.0 L 532.0 817.0 L 535.0 773.0 Z" fill="#f7f7f5" data-old-id="tile_062" data-tier="2" /><path id="ruin2_l15" d="M 787.0 771.0 L 780.0 776.0 L 773.0 795.0 L 771.0 808.0 L 773.0 828.0 L 818.0 881.0 L 827.0 885.0 L 848.0 881.0 L 859.0 871.0 L 869.0 845.0 L 874.0 796.0 L 869.0 781.0 L 863.0 775.0 L 850.0 770.0 Z" fill="#f7f7f5" data-old-id="tile_063" data-tier="2" /><path id="ruin2_l16" d="M 87.0 748.0 L 95.0 758.0 L 114.0 770.0 L 116.0 785.0 L 88.0 826.0 L 70.0 846.0 L 77.0 859.0 L 116.0 892.0 L 159.0 858.0 L 198.0 816.0 L 199.0 785.0 L 185.0 793.0 L 179.0 793.0 Z" fill="#f7f7f5" data-old-id="tile_060" data-tier="2" /><path id="ruin2_l17" d="M 529.0 862.0 L 541.0 886.0 L 552.0 883.0 L 606.0 881.0 L 619.0 878.0 L 643.0 858.0 L 661.0 850.0 L 679.0 849.0 L 694.0 853.0 L 699.0 834.0 L 659.0 832.0 L 608.0 820.0 L 547.0 816.0 L 538.0 819.0 L 529.0 847.0 Z" fill="#f7f7f5" data-old-id="tile_065" data-tier="2" /><path id="ruin2_l18" d="M 256.0 836.0 L 259.0 849.0 L 258.0 858.0 L 284.0 857.0 L 295.0 860.0 L 324.0 883.0 L 343.0 893.0 L 383.0 902.0 L 419.0 903.0 L 415.0 866.0 L 373.0 847.0 L 361.0 836.0 L 352.0 821.0 L 330.0 828.0 L 272.0 831.0 Z" fill="#f7f7f5" data-old-id="tile_067" data-tier="2" /></g><g id="ruin3"><path id="ruin3_l1" d="M 239.0 133.0 L 244.0 176.0 L 265.0 170.0 L 321.0 165.0 L 366.0 165.0 L 419.0 172.0 L 414.0 157.0 L 412.0 135.0 L 382.0 127.0 L 338.0 109.0 L 316.0 108.0 L 253.0 117.0 L 244.0 120.0 Z" fill="#f7f7f5" data-old-id="tile_013" data-tier="3" /><path id="ruin3_l2" d="M 773.0 135.0 L 758.0 146.0 L 753.0 156.0 L 753.0 164.0 L 757.0 172.0 L 767.0 179.0 L 768.0 186.0 L 776.0 182.0 L 780.0 188.0 L 784.0 183.0 L 789.0 185.0 L 793.0 183.0 L 792.0 177.0 L 803.0 165.0 L 805.0 152.0 L 793.0 138.0 L 786.0 135.0 Z" fill="#f7f7f5" data-old-id="tile_018" data-tier="3" /><path id="ruin3_l3" d="M 237.0 120.0 L 212.0 117.0 L 195.0 122.0 L 180.0 139.0 L 180.0 157.0 L 177.0 163.0 L 168.0 167.0 L 144.0 168.0 L 130.0 179.0 L 137.0 206.0 L 138.0 230.0 L 148.0 227.0 L 164.0 227.0 L 204.0 242.0 L 220.0 235.0 L 232.0 224.0 L 236.0 212.0 L 238.0 180.0 L 233.0 146.0 L 233.0 131.0 Z" fill="#f7f7f5" data-old-id="tile_016" data-tier="3" /><path id="ruin3_l4" d="M 608.0 139.0 L 596.0 127.0 L 583.0 122.0 L 563.0 121.0 L 551.0 125.0 L 542.0 137.0 L 537.0 168.0 L 522.0 186.0 L 496.0 193.0 L 473.0 192.0 L 456.0 188.0 L 465.0 221.0 L 464.0 234.0 L 492.0 237.0 L 533.0 256.0 L 535.0 244.0 L 545.0 232.0 L 568.0 226.0 L 574.0 222.0 L 596.0 190.0 L 606.0 180.0 L 615.0 176.0 L 614.0 154.0 Z" fill="#f7f7f5" data-old-id="tile_017" data-tier="3" /><path id="ruin3_l5" d="M 304.0 172.0 L 310.0 194.0 L 311.0 217.0 L 314.0 224.0 L 322.0 230.0 L 342.0 233.0 L 455.0 235.0 L 459.0 230.0 L 450.0 188.0 L 438.0 180.0 L 363.0 171.0 Z" fill="#f7f7f5" data-old-id="tile_019" data-tier="3" /><path id="ruin3_l6" d="M 732.0 203.0 L 753.0 253.0 L 764.0 294.0 L 763.0 319.0 L 755.0 352.0 L 759.0 366.0 L 755.0 372.0 L 772.0 384.0 L 774.0 400.0 L 788.0 402.0 L 797.0 398.0 L 804.0 391.0 L 808.0 362.0 L 820.0 349.0 L 822.0 340.0 L 824.0 276.0 L 813.0 210.0 L 811.0 207.0 L 773.0 224.0 Z" fill="#f7f7f5" data-old-id="tile_025" data-tier="3" /><path id="ruin3_l7" d="M 138.0 237.0 L 137.0 261.0 L 127.0 294.0 L 127.0 319.0 L 132.0 346.0 L 156.0 351.0 L 216.0 345.0 L 235.0 347.0 L 229.0 335.0 L 222.0 303.0 L 209.0 275.0 L 206.0 248.0 L 195.0 247.0 L 161.0 233.0 L 150.0 233.0 Z" fill="#f7f7f5" data-old-id="tile_026" data-tier="3" /><path id="ruin3_l8" d="M 220.0 351.0 L 165.0 357.0 L 169.0 375.0 L 170.0 410.0 L 164.0 478.0 L 177.0 493.0 L 191.0 517.0 L 196.0 534.0 L 195.0 560.0 L 200.0 562.0 L 237.0 555.0 L 245.0 544.0 L 264.0 536.0 L 289.0 534.0 L 289.0 502.0 L 285.0 493.0 L 278.0 487.0 L 250.0 481.0 L 241.0 470.0 L 236.0 430.0 L 240.0 360.0 L 237.0 354.0 Z" fill="#f7f7f5" data-old-id="tile_035" data-tier="3" /><path id="ruin3_l9" d="M 771.0 469.0 L 755.0 465.0 L 735.0 468.0 L 722.0 475.0 L 710.0 490.0 L 702.0 531.0 L 712.0 570.0 L 712.0 593.0 L 706.0 644.0 L 737.0 645.0 L 753.0 640.0 L 761.0 628.0 L 766.0 599.0 L 773.0 587.0 L 781.0 580.0 L 774.0 557.0 L 774.0 539.0 L 781.0 509.0 L 781.0 491.0 L 778.0 480.0 Z" fill="#f7f7f5" data-old-id="tile_040" data-tier="3" /><path id="ruin3_l10" d="M 112.0 485.0 L 118.0 511.0 L 140.0 544.0 L 144.0 556.0 L 144.0 571.0 L 127.0 604.0 L 119.0 640.0 L 130.0 642.0 L 181.0 640.0 L 181.0 622.0 L 187.0 591.0 L 190.0 536.0 L 185.0 520.0 L 172.0 498.0 L 160.0 485.0 L 141.0 480.0 Z" fill="#f7f7f5" data-old-id="tile_042" data-tier="3" /><path id="ruin3_l11" d="M 821.0 599.0 L 811.0 592.0 L 786.0 585.0 L 778.0 592.0 L 771.0 604.0 L 767.0 630.0 L 763.0 640.0 L 757.0 646.0 L 740.0 651.0 L 707.0 650.0 L 701.0 705.0 L 697.0 716.0 L 687.0 728.0 L 702.0 730.0 L 722.0 727.0 L 737.0 721.0 L 769.0 701.0 L 783.0 698.0 L 804.0 700.0 L 810.0 697.0 L 819.0 686.0 L 823.0 670.0 L 824.0 606.0 Z" fill="#f7f7f5" data-old-id="tile_050" data-tier="3" /><path id="ruin3_l12" d="M 178.0 708.0 L 162.0 717.0 L 157.0 725.0 L 156.0 736.0 L 167.0 749.0 L 168.0 758.0 L 174.0 755.0 L 177.0 761.0 L 181.0 757.0 L 189.0 761.0 L 191.0 754.0 L 204.0 745.0 L 208.0 737.0 L 208.0 728.0 L 198.0 714.0 L 189.0 709.0 Z" fill="#f7f7f5" data-old-id="tile_056" data-tier="3" /><path id="ruin3_l13" d="M 801.0 706.0 L 785.0 704.0 L 774.0 706.0 L 744.0 725.0 L 720.0 734.0 L 693.0 736.0 L 678.0 733.0 L 678.0 767.0 L 685.0 770.0 L 694.0 782.0 L 706.0 828.0 L 765.0 821.0 L 769.0 784.0 L 775.0 771.0 L 782.0 766.0 L 843.0 764.0 L 814.0 741.0 L 806.0 727.0 Z" fill="#f7f7f5" data-old-id="tile_055" data-tier="3" /><path id="ruin3_l14" d="M 451.0 718.0 L 390.0 722.0 L 380.0 725.0 L 372.0 735.0 L 358.0 779.0 L 356.0 811.0 L 362.0 826.0 L 381.0 844.0 L 414.0 859.0 L 413.0 805.0 L 416.0 785.0 L 430.0 759.0 L 439.0 749.0 L 450.0 743.0 Z" fill="#f7f7f5" data-old-id="tile_059" data-tier="3" /><path id="ruin3_l15" d="M 205.0 784.0 L 204.0 815.0 L 227.0 819.0 L 250.0 831.0 L 269.0 825.0 L 334.0 821.0 L 351.0 814.0 L 352.0 780.0 L 290.0 764.0 L 270.0 749.0 L 216.0 776.0 Z" fill="#f7f7f5" data-old-id="tile_061" data-tier="3" /><path id="ruin3_l16" d="M 699.0 828.0 L 689.0 787.0 L 685.0 780.0 L 675.0 772.0 L 645.0 770.0 L 581.0 776.0 L 541.0 774.0 L 539.0 812.0 L 568.0 810.0 L 601.0 813.0 L 655.0 825.0 Z" fill="#f7f7f5" data-old-id="tile_064" data-tier="3" /></g><g id="ruin4"><path id="ruin4_l1" d="M 674.0 174.0 L 669.0 172.0 L 643.0 174.0 L 611.0 185.0 L 601.0 195.0 L 579.0 227.0 L 571.0 232.0 L 554.0 235.0 L 542.0 245.0 L 539.0 264.0 L 547.0 276.0 L 577.0 305.0 L 582.0 319.0 L 583.0 342.0 L 604.0 341.0 L 647.0 347.0 L 642.0 323.0 L 644.0 269.0 L 651.0 241.0 L 656.0 237.0 L 667.0 236.0 L 666.0 199.0 Z" fill="#f7f7f5" data-old-id="tile_021" data-tier="4" /><path id="ruin4_l2" d="M 298.0 173.0 L 267.0 176.0 L 245.0 182.0 L 242.0 193.0 L 242.0 214.0 L 237.0 229.0 L 228.0 238.0 L 212.0 246.0 L 215.0 273.0 L 228.0 301.0 L 235.0 333.0 L 246.0 350.0 L 288.0 345.0 L 282.0 299.0 L 283.0 273.0 L 289.0 255.0 L 308.0 226.0 L 305.0 220.0 L 304.0 196.0 Z" fill="#f7f7f5" data-old-id="tile_022" data-tier="4" /><path id="ruin4_l3" d="M 682.0 178.0 L 672.0 201.0 L 673.0 240.0 L 658.0 244.0 L 652.0 260.0 L 648.0 288.0 L 648.0 321.0 L 653.0 346.0 L 680.0 347.0 L 705.0 358.0 L 747.0 356.0 L 758.0 309.0 L 756.0 284.0 L 749.0 261.0 L 724.0 199.0 Z" fill="#f7f7f5" data-old-id="tile_024" data-tier="4" /><path id="ruin4_l4" d="M 294.0 346.0 L 340.0 340.0 L 361.0 348.0 L 377.0 333.0 L 392.0 309.0 L 402.0 299.0 L 422.0 291.0 L 448.0 288.0 L 459.0 282.0 L 461.0 264.0 L 453.0 241.0 L 340.0 239.0 L 312.0 233.0 L 297.0 255.0 L 288.0 281.0 Z" fill="#f7f7f5" data-old-id="tile_027" data-tier="4" /><path id="ruin4_l5" d="M 751.0 362.0 L 705.0 364.0 L 709.0 377.0 L 709.0 394.0 L 705.0 403.0 L 694.0 411.0 L 667.0 419.0 L 652.0 433.0 L 646.0 448.0 L 646.0 473.0 L 657.0 529.0 L 676.0 527.0 L 691.0 532.0 L 695.0 531.0 L 703.0 490.0 L 709.0 478.0 L 717.0 470.0 L 740.0 460.0 L 767.0 461.0 L 765.0 440.0 L 768.0 392.0 L 764.0 385.0 L 749.0 377.0 L 748.0 370.0 L 753.0 364.0 Z" fill="#f7f7f5" data-old-id="tile_036" data-tier="4" /><path id="ruin4_l6" d="M 665.0 533.0 L 646.0 539.0 L 634.0 548.0 L 629.0 558.0 L 626.0 579.0 L 615.0 582.0 L 603.0 581.0 L 594.0 587.0 L 588.0 602.0 L 588.0 612.0 L 593.0 626.0 L 602.0 635.0 L 625.0 648.0 L 634.0 659.0 L 638.0 673.0 L 634.0 691.0 L 646.0 694.0 L 660.0 703.0 L 672.0 715.0 L 678.0 726.0 L 690.0 714.0 L 698.0 689.0 L 706.0 572.0 L 697.0 537.0 L 689.0 538.0 L 674.0 533.0 Z" fill="#f7f7f5" data-old-id="tile_047" data-tier="4" /><path id="ruin4_l7" d="M 543.0 533.0 L 529.0 529.0 L 477.0 578.0 L 478.0 638.0 L 457.0 710.0 L 468.0 703.0 L 482.0 700.0 L 580.0 702.0 L 626.0 691.0 L 630.0 685.0 L 631.0 669.0 L 625.0 658.0 L 597.0 640.0 L 585.0 625.0 L 582.0 600.0 L 585.0 589.0 L 592.0 579.0 L 562.0 545.0 Z" fill="#f7f7f5" data-old-id="tile_045" data-tier="4" /><path id="ruin4_l8" d="M 195.0 567.0 L 187.0 624.0 L 186.0 680.0 L 288.0 731.0 L 290.0 728.0 L 276.0 709.0 L 275.0 702.0 L 299.0 657.0 L 273.0 635.0 L 254.0 610.0 L 243.0 587.0 L 237.0 561.0 L 211.0 568.0 Z" fill="#f7f7f5" data-old-id="tile_049" data-tier="4" /><path id="ruin4_l9" d="M 276.0 745.0 L 295.0 759.0 L 318.0 763.0 L 353.0 774.0 L 367.0 730.0 L 375.0 720.0 L 388.0 716.0 L 451.0 712.0 L 465.0 660.0 L 406.0 656.0 L 307.0 658.0 L 282.0 704.0 L 296.0 724.0 L 296.0 732.0 Z" fill="#f7f7f5" data-old-id="tile_053" data-tier="4" /><path id="ruin4_l10" d="M 673.0 761.0 L 672.0 733.0 L 667.0 720.0 L 651.0 705.0 L 634.0 697.0 L 572.0 709.0 L 536.0 706.0 L 477.0 707.0 L 464.0 713.0 L 456.0 724.0 L 456.0 744.0 L 461.0 747.0 L 503.0 755.0 L 527.0 755.0 L 539.0 766.0 L 547.0 769.0 L 578.0 770.0 L 643.0 764.0 L 672.0 765.0 Z" fill="#f7f7f5" data-old-id="tile_054" data-tier="4" /></g><g id="ruin5"><path id="ruin5_l1" d="M 533.0 263.0 L 524.0 261.0 L 486.0 242.0 L 460.0 240.0 L 467.0 262.0 L 467.0 280.0 L 464.0 287.0 L 457.0 292.0 L 424.0 297.0 L 407.0 304.0 L 398.0 313.0 L 381.0 339.0 L 366.0 354.0 L 403.0 398.0 L 421.0 414.0 L 466.0 369.0 L 472.0 366.0 L 479.0 367.0 L 510.0 398.0 L 529.0 391.0 L 566.0 351.0 L 577.0 344.0 L 576.0 321.0 L 570.0 307.0 L 538.0 276.0 Z" fill="#f7f7f5" data-old-id="tile_028" data-tier="5" /><path id="ruin5_l2" d="M 245.0 356.0 L 246.0 376.0 L 242.0 427.0 L 246.0 465.0 L 257.0 477.0 L 277.0 480.0 L 290.0 488.0 L 295.0 499.0 L 295.0 534.0 L 328.0 533.0 L 358.0 537.0 L 418.0 525.0 L 369.0 477.0 L 370.0 466.0 L 416.0 419.0 L 389.0 393.0 L 357.0 354.0 L 347.0 348.0 L 332.0 346.0 L 302.0 352.0 L 275.0 352.0 Z" fill="#f7f7f5" data-old-id="tile_031" data-tier="5" /><path id="ruin5_l3" d="M 678.0 353.0 L 637.0 353.0 L 602.0 347.0 L 585.0 348.0 L 571.0 356.0 L 534.0 396.0 L 515.0 403.0 L 572.0 460.0 L 579.0 470.0 L 577.0 481.0 L 535.0 524.0 L 554.0 531.0 L 568.0 541.0 L 599.0 576.0 L 621.0 574.0 L 624.0 569.0 L 623.0 556.0 L 629.0 543.0 L 637.0 536.0 L 651.0 531.0 L 640.0 475.0 L 640.0 446.0 L 644.0 433.0 L 660.0 415.0 L 689.0 406.0 L 702.0 395.0 L 703.0 379.0 L 698.0 362.0 Z" fill="#f7f7f5" data-old-id="tile_032" data-tier="5" /><path id="ruin5_l4" d="M 518.0 432.0 L 512.0 437.0 L 516.0 450.0 L 510.0 470.0 L 503.0 478.0 L 496.0 478.0 L 490.0 470.0 L 484.0 444.0 L 488.0 431.0 L 482.0 426.0 L 476.0 430.0 L 476.0 435.0 L 482.0 443.0 L 483.0 466.0 L 481.0 473.0 L 476.0 477.0 L 468.0 477.0 L 458.0 466.0 L 450.0 449.0 L 451.0 438.0 L 443.0 435.0 L 439.0 439.0 L 439.0 442.0 L 448.0 449.0 L 454.0 466.0 L 456.0 484.0 L 453.0 489.0 L 446.0 490.0 L 436.0 484.0 L 421.0 468.0 L 420.0 457.0 L 414.0 455.0 L 410.0 463.0 L 414.0 467.0 L 419.0 467.0 L 450.0 518.0 L 511.0 503.0 L 515.0 495.0 L 518.0 449.0 L 525.0 438.0 Z" fill="#f7f7f5" data-old-id="tile_039" data-tier="5" /><path id="ruin5_l5" d="M 468.0 653.0 L 473.0 628.0 L 471.0 578.0 L 423.0 530.0 L 360.0 543.0 L 326.0 539.0 L 271.0 541.0 L 257.0 545.0 L 243.0 557.0 L 248.0 582.0 L 261.0 608.0 L 277.0 629.0 L 293.0 645.0 L 304.0 652.0 L 408.0 650.0 Z" fill="#f7f7f5" data-old-id="tile_046" data-tier="5" /></g><g id="danger_ne"><path id="danger_ne_tile" d="M 871.0 166.0 L 778.0 118.0 L 677.0 169.0 L 776.0 217.0 L 813.0 200.0 Z" fill="#f7f7f5" data-old-id="danger_ne_tile" data-tier="special" /><path id="danger_ne_icon" d="M 775.0 133.0 L 764.0 137.0 L 757.0 144.0 L 753.0 151.0 L 751.0 161.0 L 754.0 171.0 L 757.0 175.0 L 766.0 181.0 L 766.0 186.0 L 768.0 188.0 L 771.0 188.0 L 774.0 183.0 L 777.0 188.0 L 782.0 189.0 L 785.0 184.0 L 787.0 186.0 L 792.0 186.0 L 795.0 184.0 L 794.0 178.0 L 804.0 167.0 L 807.0 155.0 L 805.0 147.0 L 797.0 138.0 L 784.0 133.0 Z M 779.0 167.0 L 783.0 170.0 L 782.0 175.0 L 780.0 173.0 L 776.0 173.0 L 776.0 170.0 Z M 766.0 149.0 L 769.0 149.0 L 774.0 155.0 L 774.0 163.0 L 770.0 170.0 L 766.0 169.0 L 761.0 163.0 L 761.0 155.0 Z M 785.0 148.0 L 788.0 148.0 L 794.0 156.0 L 793.0 163.0 L 789.0 168.0 L 786.0 168.0 L 781.0 163.0 L 780.0 154.0 Z" fill="#6d6d6d" fill-rule="evenodd" /></g><g id="throne"><path id="throne1" d="M 474.0 372.0 L 375.0 471.0 L 376.0 475.0 L 474.0 572.0 L 573.0 475.0 L 571.0 469.0 Z" fill="#f7f7f5" data-old-id="throne_tile" data-tier="special" /><path id="throne_icon" d="M 523.0 432.0 L 516.0 431.0 L 511.0 435.0 L 511.0 441.0 L 515.0 446.0 L 509.0 468.0 L 501.0 477.0 L 497.0 476.0 L 493.0 472.0 L 490.0 465.0 L 486.0 446.0 L 486.0 440.0 L 489.0 436.0 L 489.0 429.0 L 485.0 425.0 L 478.0 425.0 L 474.0 430.0 L 475.0 437.0 L 481.0 445.0 L 481.0 468.0 L 474.0 476.0 L 471.0 476.0 L 465.0 472.0 L 458.0 462.0 L 452.0 450.0 L 452.0 436.0 L 450.0 434.0 L 443.0 433.0 L 438.0 437.0 L 437.0 442.0 L 442.0 448.0 L 446.0 449.0 L 452.0 465.0 L 454.0 484.0 L 451.0 488.0 L 445.0 488.0 L 429.0 474.0 L 423.0 467.0 L 424.0 461.0 L 422.0 456.0 L 419.0 454.0 L 412.0 454.0 L 409.0 457.0 L 408.0 462.0 L 413.0 469.0 L 418.0 469.0 L 424.0 477.0 L 449.0 520.0 L 514.0 504.0 L 516.0 502.0 L 520.0 447.0 L 526.0 441.0 L 526.0 436.0 Z" fill="#9b80cb" fill-rule="evenodd" /></g><g id="danger_sw"><path id="danger_sw_tile" d="M 280.0 735.0 L 183.0 686.0 L 86.0 739.0 L 181.0 787.0 Z" fill="#f7f7f5" data-old-id="danger_sw_tile" data-tier="special" /><path id="danger_sw_icon" d="M 175.0 707.0 L 166.0 711.0 L 157.0 721.0 L 155.0 726.0 L 155.0 738.0 L 159.0 745.0 L 166.0 751.0 L 165.0 758.0 L 167.0 760.0 L 172.0 757.0 L 176.0 763.0 L 179.0 763.0 L 183.0 758.0 L 185.0 762.0 L 189.0 763.0 L 192.0 760.0 L 192.0 756.0 L 204.0 748.0 L 208.0 742.0 L 210.0 730.0 L 206.0 719.0 L 197.0 711.0 L 188.0 707.0 Z M 178.0 742.0 L 183.0 745.0 L 181.0 748.0 L 176.0 747.0 L 176.0 744.0 Z M 188.0 724.0 L 192.0 724.0 L 197.0 729.0 L 196.0 738.0 L 191.0 744.0 L 187.0 744.0 L 183.0 738.0 L 183.0 731.0 Z M 169.0 720.0 L 173.0 720.0 L 177.0 724.0 L 177.0 734.0 L 172.0 741.0 L 168.0 740.0 L 164.0 734.0 L 164.0 726.0 Z" fill="#6d6d6d" fill-rule="evenodd" /></g></g></svg>