<?xml version="1.0" encoding="UTF-8"?>
<svg xmlns="http://www.w3.org/2000/svg" version="1.1" viewBox="0 0 1536 1536">
  <!-- Generator: Adobe Illustrator 29.3.1, SVG Export Plug-In . SVG Version: 2.1.0 Build 151)  -->
  <g id="throne">
    <path id="throne1" d="M772,604c18.57,1.85,174.81,153.83,166.01,170.99-36.77,62.02-107.09,108.27-157.96,161.21-4.96,2.27-17.72,1.76-23.05,1.79-61.8-29.7-98.75-100.58-152.48-142.54-9.43-7.29-8.86-20.89-8.52-31.46,19.69-42.7,67.82-68.85,96.76-107.4,23.57-20.56,44.37-55.65,79.24-52.6Z" fill="#dee9fd" stroke="#4c4c4c" stroke-miterlimit="10" stroke-width="4"/>
  </g>
  <g id="ruin5">
    <path id="ruin5_l5" d="M667.95,667.42c-50.95-64.15-84.58-134.54-177.88-91.41-31.16,3.17-70.82-10.74-100.07,3.58-3.79,60.26-14.9,125.07-5.83,185.95,8.36,26.43,34.92,15.27,54.89,22.23,82.41,53.85-66.3,138.02,199.09,89.37,77.59-20.12-50.25-66.64-43.82-109.35,7.01-39.64,77.71-60.92,73.62-100.39Z" fill="#c6d6f6" stroke="#515151" stroke-miterlimit="10" stroke-width="4"/>
    <path id="ruin5_l4" d="M767.04,942.79c-22.05-4.7-40.25-20.2-54.92-36.69-62.51-83.37-53.29-2.52-185.68-16.14-133.01-25.7-190.5-.96-96.9,126.71,18.77,16.64,37.98,56.91,66.6,48.25,43.61-11.85,89.59-5.9,134.05-4.43,134.05,16.37,136.46,16.95,136.85-117.71Z" fill="#c6d6f6" stroke="#515151" stroke-miterlimit="10" stroke-width="4"/>
    <path id="ruin5_l3" d="M1021.39,1086.35c-3.55-14.83-11.56-25.2-25.55-31.5-78.51-21.76-23.27-92.37-76.98-130.14-83.63-103.78-56.15-51.32-141.82,13.28-11.84,64.09-22.18,132.25-40.44,196.6-14.14,45.59,20.29,8.45,42.31,8.57,54.81-5.39,261.21,36.62,242.47-56.82Z" fill="#c6d6f6" stroke="#515151" stroke-miterlimit="10" stroke-width="4"/>
    <path id="ruin5_l2" d="M1145.57,623.23c-4.34-65.39-83.42-50.44-127.4-41.25-28.27.25-59.41-15.51-85.59,1.03-19.61,8.24-27.11,26.08-43.54,38.78-11.67,15.43-34.42,25.09-44.03,41.18,12.33,34.29,103.27,78.72,92.84,118.83-100.12,109.47-89.62,54.32,5.52,165.57,104.93,9.96,34.48-39.12,106.73-74.11,8.58-9.16,2.08-45.3.9-57.82-40.97-208.24,93.5-92.94,94.57-192.21Z" fill="#c6d6f6" stroke="#515151" stroke-miterlimit="10" stroke-width="4"/>
    <path id="ruin5_l1" d="M941.36,539.62c.94-43.51-45.43-57.91-65.49-89.26-4.45-30.72-103.72-64.66-131.42-56.85-24.25,26.14,40.35,72.82-18.95,85.44-45.59.05-81.78,13.05-100.17,58.38-9.48,19.74-42.06,37.44-16.24,57.33,81.04,82.67,41.57,103.51,119.72,27.52,47.2-49.88,71.22,7.61,108.11,34.57,17.48,5.82,48.43-36.13,64.37-46.59,22.38-21.72,49.29-34.19,40.08-70.55Z" fill="#c6d6f6" stroke="#515151" stroke-miterlimit="10" stroke-width="4"/>
  </g>
  <g id="ruin4">
    <path id="ruin4_l10" d="M1043.41,294.07c48.7,1.87-9.65,219.79,9.55,271.61-8.18,29.09-80.34,5.39-105.99,9.57-12.73-10.14-.03-42.79-11.47-58.49-8.06-19.3-22.92-30.88-41.7-45.1-41.54-27.2-31.71-86.37,18.76-93.57,47.97-23.46,65.77-98.96,130.86-84.01Z" fill="#e2ebf7" stroke="#595959" stroke-miterlimit="10" stroke-width="4"/>
    <path id="ruin4_l09" d="M471.39,578.02c-16.24-20.17-9.39-199.07,34.6-194.26,41.87,23.04,239.23-13.14,232.1,20.17,21.84,72.22,18.28,73.93-58.19,80.25-51.5,4.04-54.26,111.33-108.47,84.3-35.99-18.67-64.61,13.33-100.04,9.54Z" fill="#e2ebf7" stroke="#595959" stroke-miterlimit="10" stroke-width="4"/>
    <path id="ruin4_l08" d="M1164.67,611.88c98.15-.05,93.05,24.28,83.15,113.08-4.46,14.96,16.77,47.22-12.89,35.28-80.61-19.67-97.8,46.45-100.61,111.69-22.96,3.32-48.76-5.07-72.93-.39-13.98,3.04-5.95-64.18-13.86-78.32-7.77-52.64-5.68-124.9,63.74-123.25,55.91-13.28,14.12-65.26,53.39-58.08Z" fill="#e2ebf7" stroke="#595959" stroke-miterlimit="10" stroke-width="4"/>
    <path id="ruin4_l07" d="M255.23,584.89c215.27-59.25,91.57,74.52,132.48,188.32,56.74,32.21,85.29-7.75,79.53,92.45,8.54,29.2-64.3-3.03-83.71,39.04-2.83,9.97-63.65,17.16-77.57,19.82-14.51-46.65,4.4-95.65-43.97-126.33-18.45-65.14,6.9-145.55-6.77-213.31Z" fill="#e2ebf7" stroke="#595959" stroke-miterlimit="10" stroke-width="4"/>
    <path id="ruin4_l06" d="M379.64,915.2c10.92,22.36,14.34,49.81,28.98,71.18,14.17,34.94,53.71,52,69.25,83.43-11.64,25.51-20.29,55.82-38.32,77.59-51.88,8.69-110.27,3.26-146.52-40.05-12.06-54.36,17.09-114.21,11.99-171.17,1.41-21.49,57.34-22.66,74.62-20.99Z" fill="#e2ebf7" stroke="#595959" stroke-miterlimit="10" stroke-width="4"/>
    <path id="ruin4_l05" d="M588.2,1058.91c34.8,10.31,184.6-18.78,157.92,37.89-10.11,23.57-1.32,75.35-37.81,70.01-93.23,1.9-117.87-19.16-134.96,87.29-.55,7.6-7.15,10.28-13.9,8.15-27-9.98-88.96-9.21-84.48-48.42,10.12-34.52-48.13-50.7-28.2-79.89,31.23-89.56,57.72-74.04,141.45-75.03Z" fill="#e2ebf7" stroke="#595959" stroke-miterlimit="10" stroke-width="4"/>
    <path id="ruin4_l04" d="M1029.46,1130.18c57.25,3.75,80.93,66.54,64.4,115.45-71.09,2.29-348.72,24.62-365.98-54.49-7.67-37.41,37.81-50.16,69.47-48.97,78.39,12.53,155.27-1.52,232.11-11.99Z" fill="#e2ebf7" stroke="#595959" stroke-miterlimit="10" stroke-width="4"/>
    <path id="ruin4_l03" d="M1103.22,869.67c66.53-7.11,36.81,109.71,35.69,150.03,2.25,22.18-3.97,201.39-45.69,157.83-12.83-37.04-54.73-35.1-72.92-54.93,22.08-87.62-87.18-55.65-73.28-146.82,1.58-9.09-5.29-26.48,7.96-27.46,103.58,7.03,6.36-85.18,148.25-78.64Z" fill="#e2ebf7" stroke="#595959" stroke-miterlimit="10" stroke-width="4"/>
    <path id="ruin4_l02" d="M1099.01,402.03c45.47,3.87,115.14-2.21,142.77,37.25-4.11,44.3,17.61,169.05-47.98,174.55-83.81,2.45-38.99-44.71-141.83-43.04,7.4-44.98-34.84-188.86,47.03-168.76Z" fill="#e2ebf7" stroke="#595959" stroke-miterlimit="10" stroke-width="4"/>
    <path id="ruin4_l01" d="M473.02,287.21c25.96.35,18.62,34.23,19.88,50.78-1,16.33,8.86,34.86-.85,49.7-40.71,53.06-25.07,121.29-27.21,182.85-1.88,12.84-27.2-.42-37.77,2.5-11.66-1.41-34.46,9-41.13.04-9.58-68.96-62.09-90.43-52.21-162.48,109.92-70.15-9.41-135.51,139.28-123.39Z" fill="#e2ebf7" stroke="#595959" stroke-miterlimit="10" stroke-width="4"/>
  </g>
  <g id="ruin3">
    <path id="ruin3_l16" d="M221.19,789c81.79-5.33,78.68,87.85,82.72,145.7-2.43,25.65,5.53,114.24-16.98,123.19-33.38-3.01-66.61-10.27-100.31-9.96-3.07-.38-6.06-1.42-5.92-4.59,4.71-24.81,12.9-63.22,27.43-84.36,71.84-52.13-133.6-186.55,13.06-169.98Z" fill="#e5eefe" stroke="#3f3f3f" stroke-miterlimit="10" stroke-width="4"/>
    <path id="ruin3_l15" d="M290.03,1103.11c85.77,84.98,126.51,11.7,170.92,67.1,15.64,16.27,16.71,44.15,12.24,64.23-26.08,1.9-60.49,8.9-86.52,7.92-33.32-9.13-59.04,34.07-78.59,21.36-25.28-24.85-64.84-14.87-101.64-19.81-4.72-39.38-2.41-99.37,46.82-106.08,27.97-14.24,26.64-36.11,36.77-34.71Z" fill="#e5eefe" stroke="#3f3f3f" stroke-miterlimit="10" stroke-width="4"/>
    <path id="ruin3_l14" d="M944.39,197.08c30.96-5.19,60.76,87.44,48.77,106.33-34.01,27.55-53.04,75.11-99.7,84.04-19.42,3.61-17.91,30.76-33.24,35.52-38.26-4.08-71.32-34.29-110.76-29.66-7.83.65-9.62-6.5-8.98-12.88,2.93-24.97-11.31-51.72-4.64-75.59,200.67,34.01,70.36-121,208.54-107.75Z" fill="#e5eefe" stroke="#3f3f3f" stroke-miterlimit="10" stroke-width="4"/>
    <path id="ruin3_l13" d="M1152.5,169.06c10.25,2.35,31.37-2.78,31.28,12.86-3.09,23.36,10.38,89.72-10.33,104.82-53.26,12.79-107.57,5.44-161.6,7.49-27.13,8.17-24.16-71.18-45.5-87.42-46.24-45.07,164.9-35.32,186.14-37.75Z" fill="#e5eefe" stroke="#3f3f3f" stroke-miterlimit="10" stroke-width="4"/>
    <path id="ruin3_l12" d="M577,276.04c50.96,3.56,102.53,15.47,151.67,27.66,9.1,18.83,9.72,42.58,12.86,63.38.07,7.76,3.95,26.36-8.45,24.62-73.98-3.01-149.51,8.42-223.05-5.02-29.95-10.08-10.56-64.9-17.95-90.62,17.49-22.64,57.74-19.39,84.92-20.02Z" fill="#e5eefe" stroke="#3f3f3f" stroke-miterlimit="10" stroke-width="4"/>
    <path id="ruin3_l11" d="M535.14,174.01c47.85,9.1,86.89,45.22,137.58,48.14,3.08,18.66,1.58,38.56,7.03,57.38.94,4.89,3.31,11.85-4.42,11.42-63.43-9.97-125.61-24.04-187.57-1.1-63.96-11.8-117.44,28.95-106.08-71.11,7.76-49.13,113.25-37.82,153.46-44.73Z" fill="#e5eefe" stroke="#3f3f3f" stroke-miterlimit="10" stroke-width="4"/>
    <path id="ruin3_l10" d="M1059.36,1248.03c59.94-8.46,89.52,55.06,81,106.42-89.05,6.06-177.15-35.45-267.09-28.23-14.72-9.06,1.82-50.41-4.08-68.74-.35-5.01,1.62-6.76,6.65-6.33,61.06,4.61,122.39-5.44,183.52-3.13Z" fill="#e5eefe" stroke="#3f3f3f" stroke-miterlimit="10" stroke-width="4"/>
    <path id="ruin3_l09" d="M723.16,1164.87c32.62,74.56-69.9,34.68-52.02,225.81.74,10.61-3.08,14.37-13.83,10.99-99.56-27.06-106.09-118.95-71.87-202.27,12.69-57.24,94.79-25.53,137.72-34.53Z" fill="#e5eefe" stroke="#3f3f3f" stroke-miterlimit="10" stroke-width="4"/>
    <path id="ruin3_l08" d="M477.38,1235.23c17.77,7.42,90.03,21.68,91.54,37.98-4.8,15.66,5.82,48.87-9.76,56.02-55.48,3.54-113.67,28.76-168.23,17.57-43.96-26.55-80.37,7.62-74.06-50.73-11.14-73.16,114.02-54.77,160.52-60.84Z" fill="#e5eefe" stroke="#3f3f3f" stroke-miterlimit="10" stroke-width="4"/>
    <path id="ruin3_l07" d="M247.35,387.02c78.49,6.23,84.61,11.31,92.4,87.1,2.39,7.39,6.69,13.87,12.37,19.13,12.05,8.15,46.95,84.17,23.54,83.91-55.93-13.1-110.72,10.25-166.32,1.47-19.47-4.53-10.47-33.66-13.33-48.58-5.34-46.29,17.09-89.36,17.45-135.12,1.6-13.5,24.03-5.59,33.89-7.91Z" fill="#e5eefe" stroke="#3f3f3f" stroke-miterlimit="10" stroke-width="4"/>
    <path id="ruin3_l06" d="M396.08,283.55c-24-25.18-11.44-58.25-10.57-86.88-48.93-5.13-103.57-8.85-110.83,53.84-2.15,34.82-82.33,7.04-72.6,57.22,18.25,138.27,13.28,44.09,121.72,100.72,14.96,5.68,36.13-19.77,51.55-26.46,16.75-29.19,16.65-67.84,20.74-98.43Z" fill="#e5eefe" stroke="#3f3f3f" stroke-miterlimit="10" stroke-width="4"/>
    <path id="ruin3_l05" d="M1180.93,286.56c36.73,38.4,93.19,29.11,141.77,30.49,14.93,10.33,2.63,80.5,11.12,104.51,3.54,13.12-7.76,14.01-17.37,14.16-21.4-.75-56.7,4.17-79.2-4.27-49.49-35.75-124.26-18-175.15-33.97,1.83-142.53-25.78-89.26,118.83-110.92Z" fill="#e5eefe" stroke="#3f3f3f" stroke-miterlimit="10" stroke-width="4"/>
    <path id="ruin3_l04" d="M1283.85,957.03c24.36.05,49.83,18.99,57.24,41.77-4.17,45.24,16.4,141.29-47.78,146.76-80.27-.83-80.9,57.08-186.73,44.41-5.68-.62-.47-8.93,2.16-11.46,14.51-14.61,20.74-34.72,22.72-55.2,5.98-77.98-2.05-67.86,73.59-71.91,53.72-7.52,16.59-100.71,78.79-94.37Z" fill="#e5eefe" stroke="#3f3f3f" stroke-miterlimit="10" stroke-width="4"/>
    <path id="ruin3_l03" d="M1307.04,1145.28c3.56,1.07,3.9,6.42,3.8,9.89-13.51,53.78,100.77,85.58,70.32,92.81-60.96-7.89-147.48-13.47-133.52,72.63-1.04,7.47-2.69,21.48-11.66,22.76-29.16,1.58-57.72,4.41-86.15,11.21-10.37,1.95-9.18-9.33-9.26-16.31-3.45-92.92-57.5-51.44-44.43-129.19-10.61-36.97,81.19-7.53,111.64-35.8,29.19-20.53,62.86-33.8,99.26-28Z" fill="#e5eefe" stroke="#3f3f3f" stroke-miterlimit="10" stroke-width="4"/>
    <path id="ruin3_l02" d="M1251.11,435.08c75.25,13.08,90.91-35.42,88.8,58.7,2.13,82.51,3.28,69.41-26.7,141.17,1.96,26.36-62.97,53.32-65.41,21.61,4.05-37.51-17.76-26.73-32.66-42.27,23.56-52.68,30.18-109.87,26.79-168.53-.17-6.5,1.27-11.6,9.18-10.69Z" fill="#e5eefe" stroke="#3f3f3f" stroke-miterlimit="10" stroke-width="4"/>
    <path id="ruin3_l01" d="M1220.94,756.98c85.04,2.24,16.3,117.62,37.97,168.14,17.65,37.24-16.18,47.88-18.31,82.8,1.27,55.04-61.03,47.65-99.43,46.27-10.3-24.45-.26-56.97,2.4-83.42,6.83-73.06-47.78-223.79,77.37-213.79Z" fill="#e5eefe" stroke="#3f3f3f" stroke-miterlimit="10" stroke-width="4"/>
  </g>
  <g id="ruin2">
    <path id="ruin2_l18" d="M165,793c9.07,16.62,9.85,37.92,22.42,53.95,15.96,25.95,41.98,55.61,36.58,88.05-4.52,22.64-26.83,35.79-29.72,59.96-14,60.61-5.33,48.48-64.83,48.47-7.68-61.12-20.03-123.58-69.95-165.77-1.51-3.58-2.36-9.12-.42-12.72,35.63-22.12,67.13-57.65,105.91-71.93Z" fill="#e6edfb" stroke="#515151" stroke-miterlimit="10" stroke-width="5"/>
    <path id="ruin2_l17" d="M1443,299c35.28,1.09,27.7,48.44,39.21,72.41,0,0,4.59,10.2,13.79,30.59-.35,1.85.54,6.75-.97,8.25-167.7,77.54.26,170.33-154.03,169.75,1.4-79.46-9.79-165.9-13.01-247-3.54-37.16,87.63-31.65,115.01-34Z" fill="#e6edfb" stroke="#515151" stroke-miterlimit="10" stroke-width="5"/>
    <path id="ruin2_l16" d="M1340,97c19.8,4.55,31.16,25.74,49.8,34.13,16.44,8.1,24.69,29.48,16.84,44.31-57.91,10.96-22.78,85.74-68.27,110.09-9.71,7.56-7.5,20.05-10.47,29.98-15.79-.13-55.62.85-70.9.5-106.39,5.17-67.84-71-71.72-141.4,38.6-47.95,89.6-85.63,154.72-77.6Z" fill="#e6edfb" stroke="#515151" stroke-miterlimit="10" stroke-width="5"/>
    <path id="ruin2_l15" d="M171,1045c37.63,3.91,88.31-1.88,120,17.99,3.79,42.23-20.27,80.14-63.77,86.05-25.05,21.49-16.33,65.08-26.23,91.96-154.43,4.3-201.93-206.26-30-196Z" fill="#e6edfb" stroke="#515151" stroke-miterlimit="10" stroke-width="5"/>
    <path id="ruin2_l14" d="M1347,1245c54.37-.98,80.43,9.52,74,69,1.25,52.56-6.71,123.63-73,127-31.21,7.35-95.61-76.5-106-102,5.92-90.33,13.14-97.54,105.01-94Z" fill="#e6edfb" stroke="#515151" stroke-miterlimit="10" stroke-width="5"/>
    <path id="ruin2_l13" d="M165,568s21.16,1.84,21.16,1.84c17.56,14.72,72.27,1.63,68.87,23.75,4.04,64.1.79,133.66-1.03,197.41-74.68-7.65-96.27,23.5-96.5-69.29-2.89-41.94-58.38-18.77-62.51-44.7-1.12-24.88-1.63-50.33,19.2-67.7,19.04-12.04,25.45-44.18,50.8-41.3Z" fill="#e6edfb" stroke="#515151" stroke-miterlimit="10" stroke-width="5"/>
    <path id="ruin2_l12" d="M196,296c20.58,26.95,15.61,73.69,17,108-2.28,55.94-27,107.46-13.95,164.59.1,3.55-6,2.2-8.05,2.42-13.3-1.4-26.64-2.32-40.01-2.77-3.07-33.66-9.95-73.62-43.03-90.78-23.35-28.4-27.08-73.54-27.96-109.44,14.38-45.56,68.42-78.49,116-72Z" fill="#e6edfb" stroke="#515151" stroke-miterlimit="10" stroke-width="5"/>
    <path id="ruin2_l11" d="M843,97c33.9,18.1,54.34,65.16,53,103-10.24,10.31-21.21,20.58-24.09,36.31-8.06,33.34-16.15,72.68-58.91,70.69-33.8-4.1-128.52,11.75-136.01-31.59-1.37-15.61-4.89-42.28.39-57.24,120.21-28.61,54.97-126.93,165.62-121.17Z" fill="#e6edfb" stroke="#515151" stroke-miterlimit="10" stroke-width="5"/>
    <path id="ruin2_l10" d="M670,63c24.09,38.96,13.02,100.23,9.85,145.81-.8,23.19-58.91,4.49-71.82-2.42-34.89-21.16-75.03-39.2-116.48-29.2-96.97,6.96-105.08,56.75-101.55-63.19.26-14.1,1.96-16.03,15.54-12.96,79.59-3.26,170.66,14.66,240.11-31.29,7.2-4.89,15.63-7.33,24.34-6.75Z" fill="#e6edfb" stroke="#515151" stroke-miterlimit="10" stroke-width="5"/>
    <path id="ruin2_l09" d="M918,1327c36.98-.7,72.95,6.78,109.22,15.73,37.21,8.05,73.03,7.22,109.78,15.26.24,12.11-4.03,24.01-5.08,36.03-24.55,7.49-52.96,1.33-78.14,3.93-39.25-.84-50.42,51.48-92.71,45.56-32.65-3.85-64.71,3.43-96.43,3.75-14.16-33.88-15.6-86.87-.38-119.19,0,0,3.74-1.08,3.74-1.08h50Z" fill="#e6edfb" stroke="#515151" stroke-miterlimit="10" stroke-width="5"/>
    <path id="ruin2_l08" d="M249,105c17.77.47,44.27,1.77,45.67,25.31,1.73,23.15,12.57,46.91,10.23,69.82-30.17,16.9-18.48,69.74-52.18,70.96-18.13-3.58-30.53,9.43-45.72,15.92-2.75.34-4.95-.21-6.07-3.05,13.6-88.23-17.66-87.9-94.5-84.82-12.47-68.63,85.29-100.85,142.57-94.13Z" fill="#e6edfb" stroke="#515151" stroke-miterlimit="10" stroke-width="5"/>
    <path id="ruin2_l07" d="M950,80c62.65,3.18,126.53,20.68,189.18,13.98,12.62,10.54,1.56,64.18-9.68,73.83-55.26,12.61-123.99-10.49-170.93,27.24-18.3,4.63-38.64-2.17-57.85,1.38-9.38-36.56-26.23-69.3-51.73-98.43,14.82-18.87,76.01-17.5,101.01-18Z" fill="#e6edfb" stroke="#515151" stroke-miterlimit="10" stroke-width="5"/>
    <path id="ruin2_l06" d="M1392,576c25.37-.35,44.09,10,39.9,37.67,1.89,18.54,8.74,36.71,9.11,55.33-40.27,25.07-77.65,52.31-97.95,97.32-18.05,10.12-51.53-3.44-74.04,1.04-19.19,3.83-23.78-26.24-22-43.36,2.1-17.59,4.35-35.22,6.77-52.88,23.67-5.11,51.52-6.48,57.52-35.5,5.09-46.14,35.3-66.24,80.71-59.62Z" fill="#e6edfb" stroke="#515151" stroke-miterlimit="10" stroke-width="5"/>
    <path id="ruin2_l05" d="M1432.31,1066.52c-3.13-25.76,9.69-74.15-8.3-91.52-4.21.47-15.92-.48-19.87.53-4.17,2.14-67.9,8.73-64.1,24.71,5.22,48.73,1.39,105.89-29.04,145.76-6.36,45.55,20.11,68.73,58.91,86.36,53.37,44.17-3.09-42.89,71.16-76.6-.64-29.22-10.54-59.02-8.76-89.24Z" fill="#e6edfb" stroke="#515151" stroke-miterlimit="10" stroke-width="5"/>
    <path id="ruin2_l04" d="M1418,902c2.24-51.05-36.52-119.8-87.66-133.02-23.95-.96-48.47-1.49-72.34-1.98,1.87,29.57,10.23,58.77-1.17,88.57-7.74,151.25,12.45,63.06,77.39,133.62,4.82,2.65,12.32,1.48,17.33.05,79.4-28.24,64.84,6.74,66.45-87.24Z" fill="#e6edfb" stroke="#515151" stroke-miterlimit="10" stroke-width="5"/>
    <path id="ruin2_l03" d="M261,1245c17.35-1.92,45.8,8.36,54.74,23.35-2.43,22.21,3.69,46.1-.36,68.03-28.18,19.83-112.67,127.77-136.71,119.24-27.56-24.34-77.98-42.3-77.68-84.62,21.19-48.28,61.02-87.72,98-124.73,12.45-2.28,48.98-.86,62-1.27Z" fill="#e6edfb" stroke="#515151" stroke-miterlimit="10" stroke-width="5"/>
    <path id="ruin2_l02" d="M565.49,1332.44c19.55,11.35,31.7,33.77,50.93,45.81,35.67,25.49,68.01,21.81,63.35,77.09,2.74,19.34-20.9,12.37-32.78,12.88-50.39-2.73-114.51,6.93-149.56-37.96-13.44-29.41-43.34-27.85-71.04-26.88-10.85.88-18.41-2.09-16.56-15.06,1.91-11.62-5.5-30.2,6.95-36.63,48.05-10.97,99.39-22.68,148.7-19.24Z" fill="#e6edfb" stroke="#515151" stroke-miterlimit="10" stroke-width="5"/>
    <path id="ruin2_l01" d="M732,1213c34.95,25.14,142.7,8.71,137,49.99,3.83,70.92-4.85,83.04-77.37,79.78-61.44-4.74-18.07,91.04-105.64,124.22-3.62.47-4.86-.67-5.95-4.26.16-20.14-6.5-40.7-8.04-60.74,3.3-63.07-19.08-167.12,60-189Z" fill="#e6edfb" stroke="#515151" stroke-miterlimit="10" stroke-width="5"/>
  </g>
  <g id="ruin1">
    <path id="ruin1_l24" d="M1122.16,1397.16c15.08-2.02,11.12,16.95,19.27,25.33,25.62,31.56,19.03,76.09,19.76,113.51-14.52-1.79-258.22,4.97-302.31,0,3.94-92.19-7.96-91.28,79.43-92.69,89.19,4.66,52.54-61.47,183.85-46.15Z" fill="#dee9fd" stroke="#606060" stroke-miterlimit="10" stroke-width="5"/>
    <path id="ruin1_l23" d="M859.12,1333.95c.92,32.1-12.67,67.67,2.26,99.97,5.05,28.03-4.87,56.21-2.59,84.58,20.9,34.76-137.02,12.91-175.75,17.51-.12-7.76.02-53.7-.04-63.24,23.28-24.63,62.23-44.19,66.58-83.82,4.8-73.35,55.6-38.06,109.54-55Z" fill="#dee9fd" stroke="#606060" stroke-miterlimit="10" stroke-width="5"/>
    <path id="ruin1_l22" d="M58,868c25.73,28,83.69,127.13,63.46,179.99-73.99,16.46-29.21,123.66-118.59,107.99.1-23.24-.08-227.7,0-286.4,9.65-5.14,43.87-1.37,55.12-1.57Z" fill="#dee9fd" stroke="#606060" stroke-miterlimit="10" stroke-width="5"/>
    <path id="ruin1_l21" d="M869.81.12c10.01,30.55-14.03,63.6-23.91,90.04-13.97,15.03-48.54,5.83-64.09,23.86-23.52,44.24-28.2,81.25-85.27,98.23-8.46,3.02-19.6,8.41-17.03-6.4,5.04-34.12,7.59-69.87,2.16-103.86-8.75-32.34-6.45-70.85,6.33-101.88,20.21.94,145.31-3.2,181.82,0Z" fill="#dee9fd" stroke="#606060" stroke-miterlimit="10" stroke-width="5"/>
    <path id="ruin1_l20" d="M60.84,1149.33c48.77,105.78,159.55,74.11,129.46,108.31-99.95,90.81-41,130.06-188.39,93.36.16-18.36.84-155.27.96-195.02,7.85-7.16,29.78,2.67,39.53-2.99,5.75-2.14,12.24-5.16,18.44-3.66Z" fill="#dee9fd" stroke="#606060" stroke-miterlimit="10" stroke-width="5"/>
    <path id="ruin1_l19" d="M1156.36,2.43c41.28-3.07,201.21,2.22,227.97,1.15,8.32,32.64-30.43,42.23-36.32,70.06-2.67,6.03,1.73,15.01-2.95,20.4-142.58,5.74-121.78,82.31-172.73,77.95-17.82-5.94-50.02,4.91-35.35-25.13,6.37-16.92,9.35-33.79,5.18-51.03,10.76-34.83,18.94-53.46,14.18-93.38Z" fill="#dee9fd" stroke="#606060" stroke-miterlimit="10" stroke-width="5"/>
    <path id="ruin1_l18" d="M407.6,3.08c49.09-1.61,247.16-3.03,276.41-1.93-.33,131.97-197.38,93.97-286.12,98.51-11.03.16,5.66-87.84,9.71-96.58Z" fill="#dee9fd" stroke="#606060" stroke-miterlimit="10" stroke-width="5"/>
    <path id="ruin1_l17" d="M9.28,1355.12c113.27,4.46,63.75,20.95,128.64,68.01,49.99,25.59,63.88,60.16,53.57,112.88C2.01,1528.86-11.65,1590.73.02,1372.08c-.24-24.16,2.07-14.59,9.26-16.97Z" fill="#dee9fd" stroke="#606060" stroke-miterlimit="10" stroke-width="5"/>
    <path id="ruin1_l16" d="M180.26.76c6.32-2.46,209.92-2.58,222.04,0,12.77,2.71-5.89,78.15-9.23,92.09-20.94,108.58,46.95,102.73-76.93,101.15-23.73.77-14.27-66.18-30.77-78.85-16.5-16.12-48.57-5.76-69.28-12.39-12.45-24.71-41.95-78.16-35.83-102Z" fill="#dee9fd" stroke="#606060" stroke-miterlimit="10" stroke-width="5"/>
    <path id="ruin1_l15" d="M1151.07,1.45c45.72,181.66-203.21,37.74-294.41,90.17-31.91,5.19,24.87-60.01,14.84-80.74-1.68-19.39,220.98-5.96,279.57-9.43Z" fill="#dee9fd" stroke="#606060" stroke-miterlimit="10" stroke-width="5"/>
    <path id="ruin1_l14" d="M176.05,2.11c4.53,18.04,10.6,45.8,21.81,61.55,6.99,10.64,25.84,39.26,4.83,43.52-74.54,11-76.84,49.54-111.53,91.81-25.26-1.42-68.77,5.01-89.8-10.21C1.24-11.92-37.89-8.34,176.05,2.11Z" fill="#dee9fd" stroke="#606060" stroke-miterlimit="10" stroke-width="5"/>
    <path id="ruin1_l13" d="M96.61,455.65c28.69,36.22,84.52,90.14,34.41,138.48-78.96,69.43,22.16,106.47-128.59,87.51-8.9-12.88.44-173.99.44-208.61,2.45-23.71,69.54-7.93,93.73-17.39Z" fill="#dee9fd" stroke="#606060" stroke-miterlimit="10" stroke-width="5"/>
    <path id="ruin1_l12" d="M42.91,684.21c86.51-.78,140.63,15.45,116.6,110.43-98.19,63.68-177.98,152.82-156.15-37.59,3.85-71.51-20.75-81.52,39.55-72.84Z" fill="#dee9fd" stroke="#606060" stroke-miterlimit="10" stroke-width="5"/>
    <path id="ruin1_l11" d="M453.75,1403.05c9.32,1.45,23.7-.72,31,5.36,38.07,111.45,221.48-7.72,194.39,124.31-6.4,2.85-293.53,2.32-308.2,3.28-3.32-42.74-8.08-74.76,29.45-103.75,19.91-38.28-6.78-26.76,53.37-29.2Z" fill="#dee9fd" stroke="#606060" stroke-miterlimit="10" stroke-width="5"/>
    <path id="ruin1_l10" d="M15.21,192.23c82.47,22.67,233.92-42.55,177.93,101.82-54.14-.29-127.26,47.77-110.51,108.7.11,13.88,19.92,45.3,8.62,53.69-19.09,11.4-65.95,16.6-88.37,16.6-4.82,0,1.35-224.48-1.51-284.25.75-.83,11.43,3.37,13.85,3.43Z" fill="#dee9fd" stroke="#606060" stroke-miterlimit="10" stroke-width="5"/>
    <path id="ruin1_l09" d="M343.71,1332.15c75.54,5.69,72.17,37.19,59.16,100.16-44.93,46.5-40.76,41.13-31.93,99.93,1.03,6.83-156.51,2.62-174.14,3.76-.58-23.56-11.9-60.72-3.67-82.16,54.1-33.15,83.28-119.49,150.58-121.69Z" fill="#dee9fd" stroke="#606060" stroke-miterlimit="10" stroke-width="5"/>
    <path id="ruin1_l08" d="M1486.84,1151.98c12.92,2.95,38.74-3.03,46.99,5.56.01,45.67-.6,174.39-.59,186.36-31.59,22.53-76.29-8.1-111.21,1.87-12.75-10.63,17.57-70.09-22.89-92.76-17.5-60.51,23.46-111.9,87.7-101.04Z" fill="#dee9fd" stroke="#606060" stroke-miterlimit="10" stroke-width="5"/>
    <path id="ruin1_l07" d="M1233.55,1344.23c31.4,6.05,61.47,65.41,97.22,93.39,8.96,7.01,8.93,90.84,4.01,95.18-14.21,12.56-153.26-.78-170.68,1.59,10.44-105.17-113.35-197.07,69.44-190.15Z" fill="#dee9fd" stroke="#606060" stroke-miterlimit="10" stroke-width="5"/>
    <path id="ruin1_l06" d="M1448.05,1343.11c28.11,6.45,57.43,9.34,85.19,5.82.13,30.13,1.31,174.06,1.38,186.02-44.08-.17-195.18,3.23-199.84-2.15,6.73-19.13,4.31-63.16,3.86-83.64-3.02-12.79,34.73-6.62,53.84-29.64,38.55-33.08,4.97-83.32,55.56-76.41Z" fill="#dee9fd" stroke="#606060" stroke-miterlimit="10" stroke-width="5"/>
    <path id="ruin1_l05" d="M1422.68,852.12c18.86.57,35.94,10.47,54.11,16.65,15.08,6.06,54.03-9.05,55.57,6.72,5.35,54.95.07,260.77,1.77,277.23-140.69,18.28-98.6-58.91-104.62-165.75-1.02-13.24-14.25-8.89-13.44-19.66,2.38-35.37,3.06-70.82-3.49-105.89-1.92-9.49,1.6-9.83,10.09-9.3Z" fill="#dee9fd" stroke="#606060" stroke-miterlimit="10" stroke-width="5"/>
    <path id="ruin1_l04" d="M1384.34,3.58c220.33-16.48,133.23,19.79,144.77,179.58-18.43,5.85-43.79,3.88-63.1,5.73-82.86-2.17-40.08-14.22-65.27-45.67-37.5-26.51-83.79-60.73-31.5-101.76,10.18-7.48,12.13-26.43,15.09-37.87Z" fill="#dee9fd" stroke="#606060" stroke-miterlimit="10" stroke-width="5"/>
    <path id="ruin1_l03" d="M1411.96,176.85c181.31,26.24,103.69-38.69,122.76,227.09-115.71,4.08,11.28-161.81-201.15-88.72-17.6-26.87,27.98-41.98,29.62-67.71,2.13-29.77,8.83-76.93,48.77-70.65Z" fill="#dee9fd" stroke="#606060" stroke-miterlimit="10" stroke-width="5"/>
    <path id="ruin1_l02" d="M1531.76,403.92c3.9,47.76.74,236.67,2.07,265.47-26.19-.32-63.17.2-89.75-1.68-12.37-21.41-12.38-48.55-15.63-72.35-2.83-13.62-26.09-12.04-25.26-24.2,3.55-14.28,12.43-27.62,8.86-43.13-17.01-61.38,61.34-123.53,119.7-124.11Z" fill="#dee9fd" stroke="#606060" stroke-miterlimit="10" stroke-width="5"/>
    <path id="ruin1_l01" d="M1485.66,668.06c73.76-6.62,40.41,25.69,46.7,84.53.11,139.4,29.43,139.69-128.74,91.08-14.08-26.03-31.63-49.25-55.47-65.83-17.73-49.91,87.2-122.12,137.5-109.78Z" fill="#dee9fd" stroke="#606060" stroke-miterlimit="10" stroke-width="5"/>
  </g>
</svg>